<svg width="121" height="36" viewBox="0 0 121 36" fill="none" xmlns="http://www.w3.org/2000/svg">
<path fill-rule="evenodd" clip-rule="evenodd" d="M18.4162 16.4429L32.9719 7.31958H36.8325V35.9987H32.9719V11.8164L18.4162 20.9397L3.97079 11.8164V35.9987H0V7.31958H3.87833L18.4162 16.4429Z" fill="url(#paint0_linear_825_17868)"/>
<path fill-rule="evenodd" clip-rule="evenodd" d="M18.6054 25.4013L30.9387 17.7099L30.9646 22.2685L20.4484 28.8235V35.9999H16.781V28.8363L6.198 22.2387L6.22766 17.6843L18.6054 25.4013Z" fill="url(#paint1_linear_825_17868)"/>
<path d="M16.212 4.45013L0.0876465 4.39599V0.0437723H36.788V4.39599H20.7185V12.0124L18.5039 13.263L16.212 12.0665V4.45013Z" fill="url(#paint2_linear_825_17868)"/>
<path d="M51.5125 26.87C51.5125 27.5414 51.5287 28.0537 51.5611 28.407C51.626 28.725 51.8692 29.2373 52.2909 29.9439C52.7449 30.6152 53.5557 30.9509 54.7233 30.9509C55.372 30.9509 55.972 30.8096 56.5233 30.5269C57.0747 30.2089 57.4801 29.8203 57.7395 29.361C57.999 28.8663 58.1287 28.3717 58.1287 27.877C58.1612 27.347 58.1774 26.9937 58.1774 26.8171V24.3261C58.1774 23.6195 58.145 23.0895 58.0801 22.7362C58.0477 22.3829 57.8531 22.0119 57.4963 21.6232C57.172 21.1993 56.6855 20.8283 56.0368 20.5103C55.4206 20.157 54.3179 19.6623 52.7287 19.0263C51.1719 18.3904 49.8584 17.4011 48.7881 16.0584C47.7178 14.6805 47.1827 12.8079 47.1827 10.4406V8.85069C47.1827 6.44811 47.9124 4.38118 49.3719 2.64991C50.8638 0.883302 52.7125 0 54.9179 0C57.1558 0 59.0206 0.865636 60.5126 2.59691C62.0369 4.29285 62.799 6.37744 62.799 8.85069V10.4406H58.1774V8.85069C58.1774 8.35604 58.145 7.93205 58.0801 7.57873C58.0152 7.22541 57.7558 6.7131 57.3017 6.04179C56.8477 5.37048 56.0855 5.03482 55.0152 5.03482C54.0746 5.03482 53.2963 5.40581 52.68 6.14778C52.0963 6.85442 51.8044 7.75539 51.8044 8.85069V10.4406C51.8044 11.1119 51.8206 11.6066 51.853 11.9246C51.9179 12.2072 52.0963 12.5429 52.3882 12.9315C52.68 13.3202 53.1017 13.6559 53.653 13.9385C54.2044 14.2212 55.2584 14.6805 56.8152 15.3165C58.4044 15.9171 59.799 16.9241 60.999 18.3374C62.199 19.7153 62.799 21.6056 62.799 24.0082V26.87C62.799 28.036 62.6855 29.0606 62.4585 29.9439C62.2639 30.8272 61.6153 32.0639 60.5126 33.6538C59.4098 35.2084 57.5125 35.9857 54.8206 35.9857C52.0314 35.9857 50.0044 34.9964 48.7395 33.0178C47.4746 31.0039 46.8422 28.9546 46.8422 26.87V25.5981H51.5125V26.87Z" fill="url(#paint3_linear_825_17868)"/>
<path d="M79.3522 35.6677L75.5576 14.1505L71.8116 35.6677H67.5305L62.8116 0.317988H67.7738L70.0603 21.6762L73.8062 0.317988H77.2603L81.055 21.6762L83.3901 0.317988H88.3037L83.7307 35.6677H79.3522Z" fill="url(#paint4_linear_825_17868)"/>
<path d="M86.7796 35.6677L94.0283 0.317988H98.0661L105.315 35.6677H100.353L99.0391 28.089H93.0066L91.6931 35.6677H86.7796ZM93.8337 23.3722H98.2121L96.0229 10.4936L93.8337 23.3722Z" fill="url(#paint5_linear_825_17868)"/>
<path d="M105.823 35.6677V0.317988H113.412C114.353 0.317988 115.293 0.529981 116.234 0.953966C117.174 1.37795 117.953 1.94327 118.569 2.64991C119.218 3.32122 119.753 4.13385 120.174 5.08782C120.629 6.04179 120.856 6.96042 120.856 7.84372V12.9845C120.856 14.2918 120.693 15.4578 120.369 16.4824C120.045 17.507 119.477 18.461 118.666 19.3443C117.888 20.1923 117.028 20.8106 116.088 21.1992C115.18 21.5526 114.11 21.7292 112.877 21.7292H110.445V35.6677H105.823ZM115.65 15.9524C115.942 15.6344 116.12 15.2988 116.185 14.9455C116.283 14.5922 116.331 14.1505 116.331 13.6205V8.3737C116.331 7.38441 116.056 6.57177 115.504 5.93579C114.953 5.29981 114.207 4.98182 113.266 4.98182H110.445V16.9594H112.877C113.526 16.9594 114.045 16.9064 114.434 16.8004C114.855 16.6591 115.261 16.3764 115.65 15.9524Z" fill="url(#paint6_linear_825_17868)"/>
<defs>
<linearGradient id="paint0_linear_825_17868" x1="18.4162" y1="15.4733" x2="18.4162" y2="35.9987" gradientUnits="userSpaceOnUse">
<stop stop-color="white"/>
<stop offset="1" stop-color="#5F5F5E"/>
</linearGradient>
<linearGradient id="paint1_linear_825_17868" x1="18.5813" y1="18.0057" x2="18.5813" y2="35.9999" gradientUnits="userSpaceOnUse">
<stop stop-color="#55545F"/>
<stop offset="1" stop-color="white"/>
</linearGradient>
<linearGradient id="paint2_linear_825_17868" x1="18.4387" y1="13.263" x2="18.4387" y2="0" gradientUnits="userSpaceOnUse">
<stop stop-color="#1F1F1D"/>
<stop offset="0.447917" stop-color="#898888"/>
<stop offset="0.760417" stop-color="#E2E2E2"/>
<stop offset="1" stop-color="white"/>
</linearGradient>
<linearGradient id="paint3_linear_825_17868" x1="53.1177" y1="10.231" x2="53.1177" y2="35.9857" gradientUnits="userSpaceOnUse">
<stop stop-color="white"/>
<stop offset="1" stop-color="#5F5F5E"/>
</linearGradient>
<linearGradient id="paint4_linear_825_17868" x1="53.1177" y1="10.231" x2="53.1177" y2="35.9857" gradientUnits="userSpaceOnUse">
<stop stop-color="white"/>
<stop offset="1" stop-color="#5F5F5E"/>
</linearGradient>
<linearGradient id="paint5_linear_825_17868" x1="53.1177" y1="10.231" x2="53.1177" y2="35.9857" gradientUnits="userSpaceOnUse">
<stop stop-color="white"/>
<stop offset="1" stop-color="#5F5F5E"/>
</linearGradient>
<linearGradient id="paint6_linear_825_17868" x1="53.1177" y1="10.231" x2="53.1177" y2="35.9857" gradientUnits="userSpaceOnUse">
<stop stop-color="white"/>
<stop offset="1" stop-color="#5F5F5E"/>
</linearGradient>
</defs>
</svg>
