<svg width="20" height="20" viewBox="0 0 20 20" fill="none" xmlns="http://www.w3.org/2000/svg">
                        <path d="M15.8334 8.33332C17.5001 8.33332 18.3334 7.49999 18.3334 5.83332V4.16666C18.3334 2.49999 17.5001 1.66666 15.8334 1.66666H14.1667C12.5001 1.66666 11.6667 2.49999 11.6667 4.16666V5.83332C11.6667 7.49999 12.5001 8.33332 14.1667 8.33332H15.8334Z" stroke="white" stroke-width="1.5" stroke-linecap="round" stroke-linejoin="round" />
                        <path d="M5.83341 18.3333C7.50008 18.3333 8.33341 17.5 8.33341 15.8333V14.1667C8.33341 12.5 7.50008 11.6667 5.83341 11.6667H4.16675C2.50008 11.6667 1.66675 12.5 1.66675 14.1667V15.8333C1.66675 17.5 2.50008 18.3333 4.16675 18.3333H5.83341Z" stroke="white" stroke-width="1.5" stroke-linecap="round" stroke-linejoin="round" />
                        <path fill-rule="evenodd" clip-rule="evenodd" d="M5.00008 8.33332C3.15913 8.33332 1.66675 6.84094 1.66675 4.99999C1.66675 3.15904 3.15913 1.66666 5.00008 1.66666C6.84103 1.66666 8.33341 3.15904 8.33341 4.99999C8.33341 6.84094 6.84103 8.33332 5.00008 8.33332Z" stroke="white" stroke-width="1.5" stroke-linecap="round" stroke-linejoin="round" />
                        <path fill-rule="evenodd" clip-rule="evenodd" d="M15.0001 18.3333C13.1591 18.3333 11.6667 16.8409 11.6667 15C11.6667 13.159 13.1591 11.6667 15.0001 11.6667C16.841 11.6667 18.3334 13.159 18.3334 15C18.3334 16.8409 16.841 18.3333 15.0001 18.3333Z" stroke="white" stroke-width="1.5" stroke-linecap="round" stroke-linejoin="round" /> </svg>
