<svg width="20" height="20" viewBox="0 0 20 20" fill="none" xmlns="http://www.w3.org/2000/svg">
  <path d="M18.3333 14.5833H12.5" stroke="#B2B2B2" stroke-width="1.5" stroke-linecap="round" stroke-linejoin="round"></path>
  <path d="M4.16675 14.5833H1.66675" stroke="#B2B2B2" stroke-width="1.5" stroke-linecap="round" stroke-linejoin="round"></path>
  <path d="M18.3333 5.41667H15.8333" stroke="#B2B2B2" stroke-width="1.5" stroke-linecap="round" stroke-linejoin="round"></path>
  <path d="M7.50008 5.41667H1.66675" stroke="#B2B2B2" stroke-width="1.5" stroke-linecap="round" stroke-linejoin="round"></path>
  <path d="M10.8334 12.0833C11.7501 12.0833 12.5001 12.5 12.5001 13.75V15.4167C12.5001 16.6667 11.7501 17.0833 10.8334 17.0833H5.83341C4.91675 17.0833 4.16675 16.6667 4.16675 15.4167V13.75C4.16675 12.5 4.91675 12.0833 5.83341 12.0833H10.8334Z" stroke="#B2B2B2" stroke-width="1.5" stroke-linecap="round" stroke-linejoin="round"></path>
  <path d="M14.1667 2.91667C15.0833 2.91667 15.8333 3.33334 15.8333 4.58334V6.25001C15.8333 7.5 15.0833 7.91667 14.1667 7.91667H9.16667C8.25 7.91667 7.5 7.5 7.5 6.25001V4.58334C7.5 3.33334 8.25 2.91667 9.16667 2.91667H14.1667Z" stroke="#B2B2B2" stroke-width="1.5" stroke-linecap="round" stroke-linejoin="round"></path> 
</svg>