<svg width="62" height="64" viewBox="0 0 62 64" fill="none" xmlns="http://www.w3.org/2000/svg">
<g clip-path="url(#clip0_338_3737)">
<path d="M59.7617 32.1108C59.0356 32.1108 58.4417 32.7047 58.4417 33.4307C58.4417 48.7436 45.967 61.2843 30.5882 61.2843C15.2093 61.2843 2.73461 48.8096 2.73461 33.4967C2.73461 18.7779 14.1531 6.76525 28.6081 5.77519L27.4202 6.69922C26.8263 7.16147 26.6942 8.01918 27.1564 8.61309C27.4202 8.9432 27.8166 9.14118 28.2126 9.14118C28.4764 9.14118 28.8065 9.07534 29.0045 8.87737L33.4925 5.44506C33.8226 5.18124 34.0206 4.78483 34.0206 4.32305C34.0206 3.8608 33.7568 3.46486 33.4267 3.26689L28.9386 0.29684C28.3447 -0.0991114 27.4866 0.0330256 27.0905 0.692791C26.6946 1.28672 26.8267 2.14487 27.4865 2.54089L28.4105 3.13482C12.5696 4.19099 0.0289307 17.3916 0.0289307 33.4965C0.0289307 50.3275 13.6917 63.9902 30.5226 63.9902C47.3536 63.9907 61.0823 50.3275 61.0823 33.4965C61.0823 32.7705 60.4884 32.1107 59.7624 32.1107L59.7617 32.1108Z" fill="white" fill-opacity="0.3"/>
<path d="M60.3557 26.4345C60.3557 27.3456 59.6172 28.0845 58.7056 28.0845C57.7945 28.0845 57.0555 27.3456 57.0555 26.4345C57.0555 25.5228 57.7945 24.7844 58.7056 24.7844C59.6172 24.7844 60.3557 25.5228 60.3557 26.4345Z" fill="white" fill-opacity="0.3"/>
<path d="M58.2435 20.2961C58.2435 21.2078 57.5046 21.9462 56.5935 21.9462C55.6823 21.9462 54.9434 21.2078 54.9434 20.2961C54.9434 19.385 55.6823 18.6461 56.5935 18.6461C57.5046 18.6461 58.2435 19.385 58.2435 20.2961Z" fill="white" fill-opacity="0.3"/>
<path d="M54.2833 14.5538C54.2833 15.4649 53.5449 16.2039 52.6332 16.2039C51.7221 16.2039 50.9832 15.4649 50.9832 14.5538C50.9832 13.6422 51.7221 12.9037 52.6332 12.9037C53.5449 12.9037 54.2833 13.6422 54.2833 14.5538Z" fill="white" fill-opacity="0.3"/>
<path d="M48.8051 9.60352C48.8051 10.5147 48.0666 11.2536 47.155 11.2536C46.2438 11.2536 45.5049 10.5147 45.5049 9.60352C45.5049 8.69192 46.2438 7.95343 47.155 7.95343C48.0666 7.95343 48.8051 8.69192 48.8051 9.60352Z" fill="white" fill-opacity="0.3"/>
<path d="M42.2706 6.17121C42.2706 7.08282 41.5317 7.8213 40.6206 7.8213C39.7089 7.8213 38.9705 7.08282 38.9705 6.17121C38.9705 5.26006 39.7089 4.52112 40.6206 4.52112C41.5317 4.52112 42.2706 5.26006 42.2706 6.17121Z" fill="white" fill-opacity="0.3"/>
<path d="M42.2707 26.8965C42.2707 26.1704 41.6767 25.5102 40.8843 25.5102L22.9973 25.5107L26.0337 22.4743C26.5618 21.9462 26.5618 21.0879 26.0337 20.5604C25.7699 20.2966 25.4398 20.1644 25.0439 20.1644C24.7138 20.1644 24.3178 20.2966 24.054 20.5604L18.7078 25.9066C18.1797 26.4346 18.1797 27.2929 18.7078 27.8204L24.054 33.233C24.3178 33.4968 24.6479 33.6289 25.0439 33.6289C25.4398 33.6289 25.7699 33.4968 26.0337 33.233C26.2976 32.9692 26.4297 32.639 26.4297 32.2431C26.4297 31.8472 26.2976 31.517 26.0337 31.2532L22.9973 28.1511H40.8843C41.6099 28.2827 42.2702 27.6225 42.2702 26.8964L42.2707 26.8965Z" fill="white" fill-opacity="0.3"/>
<path d="M35.9343 47.5557C36.3303 47.5557 36.6604 47.4235 36.9242 47.1597L42.2704 41.7472C42.7984 41.2191 42.7984 40.3609 42.2704 39.8333L36.9242 34.4871C36.3961 33.959 35.5379 33.959 35.0103 34.4871C34.4822 35.0152 34.4822 35.8734 35.0103 36.401L38.0467 39.4374H20.0937C19.3676 39.4374 18.7074 40.0313 18.7074 40.8237C18.7074 41.5498 19.3013 42.21 20.0937 42.21H37.9807L34.9443 45.3122C34.6805 45.576 34.5484 45.9061 34.5484 46.3021C34.5484 46.698 34.6805 47.0281 34.9443 47.2919C35.2081 47.4236 35.5382 47.5558 35.9342 47.5558L35.9343 47.5557Z" fill="white" fill-opacity="0.3"/>
</g>
<defs>
<clipPath id="clip0_338_3737">
<rect width="61.1713" height="64" fill="white"/>
</clipPath>
</defs>
</svg>
