<svg width="20" height="20" viewBox="0 0 20 20" fill="none" xmlns="http://www.w3.org/2000/svg">
<path d="M7.66699 10.3749C7.32533 10.3749 7.04199 10.0916 7.04199 9.74994C7.04199 9.40827 7.32533 9.12494 7.66699 9.12494H11.8337C12.1753 9.12494 12.4587 9.40827 12.4587 9.74994C12.4587 10.0916 12.1753 10.3749 11.8337 10.3749H7.66699Z" fill="#B2B2B2"/>
<path d="M9.125 11.8333V7.66663C9.125 7.32496 9.40833 7.04163 9.75 7.04163C10.0917 7.04163 10.375 7.32496 10.375 7.66663V11.8333C10.375 12.175 10.0917 12.4583 9.75 12.4583C9.40833 12.4583 9.125 12.175 9.125 11.8333Z" fill="#B2B2B2"/>
<path fill-rule="evenodd" clip-rule="evenodd" d="M1.0415 9.58335C1.0415 4.87502 4.87484 1.04169 9.58317 1.04169C14.2915 1.04169 18.1248 4.87502 18.1248 9.58335C18.1248 14.2917 14.2915 18.125 9.58317 18.125C4.87484 18.125 1.0415 14.2917 1.0415 9.58335ZM2.2915 9.58335C2.2915 13.6 5.55817 16.875 9.58317 16.875C13.6082 16.875 16.8748 13.6 16.8748 9.58335C16.8748 5.56669 13.6082 2.29169 9.58317 2.29169C5.55817 2.29169 2.2915 5.56669 2.2915 9.58335Z" fill="#B2B2B2"/>
<path d="M17.8919 18.775L16.2252 17.1083C15.9835 16.8666 15.9835 16.4666 16.2252 16.225C16.4669 15.9833 16.8669 15.9833 17.1085 16.225L18.7752 17.8916C19.0169 18.1333 19.0169 18.5333 18.7752 18.775C18.6502 18.9 18.4919 18.9583 18.3335 18.9583C18.1752 18.9583 18.0169 18.9 17.8919 18.775Z" fill="#B2B2B2"/>
</svg>
