<svg width="20" height="20" viewBox="0 0 20 20" fill="none" xmlns="http://www.w3.org/2000/svg">
<path d="M10 20C15.5228 20 20 15.5228 20 10C20 4.47715 15.5228 0 10 0C4.47715 0 0 4.47715 0 10C0 15.5228 4.47715 20 10 20Z" fill="#2DAEE4"/>
<path fill-rule="evenodd" clip-rule="evenodd" d="M5.1894 7.47308H5.25815C5.86002 7.46183 6.38315 7.23433 6.8269 6.7912C7.25815 6.32495 7.4744 5.79058 7.4744 5.18808C7.4744 4.8812 7.58502 4.61683 7.8069 4.39495C7.91205 4.28715 8.03816 4.20203 8.17747 4.14484C8.31678 4.08766 8.46633 4.05962 8.6169 4.06245C8.92315 4.06245 9.18815 4.17308 9.4094 4.39495C9.63127 4.61683 9.7419 4.8812 9.7419 5.18808C9.7419 5.49433 9.6369 5.75933 9.4269 5.9812C9.33036 6.0874 9.21343 6.17306 9.08307 6.23309C8.95271 6.29311 8.8116 6.32627 8.66815 6.33058C8.02002 6.30745 7.46315 6.52933 6.9969 6.99558C6.53065 7.46183 6.3094 8.00745 6.3319 8.63308C6.3544 9.28058 6.58815 9.82058 7.03127 10.2525C7.52002 10.6843 8.06565 10.895 8.66815 10.8837C8.81164 10.8881 8.95278 10.9213 9.08314 10.9815C9.21351 11.0416 9.33042 11.1274 9.4269 11.2337C9.6369 11.455 9.7419 11.7137 9.7419 12.0087C9.7419 12.3275 9.63127 12.5975 9.4094 12.8193C9.307 12.9259 9.18386 13.0104 9.04756 13.0676C8.91126 13.1248 8.7647 13.1534 8.6169 13.1518C8.29815 13.1518 8.02877 13.0406 7.8069 12.8193C7.69909 12.7142 7.61397 12.5881 7.55679 12.4487C7.4996 12.3094 7.47156 12.1599 7.4744 12.0093C7.47921 11.7174 7.42419 11.4277 7.31272 11.1579C7.20126 10.8881 7.0357 10.6439 6.82627 10.4406C6.62401 10.226 6.38123 10.0537 6.11196 9.93355C5.8427 9.8134 5.55229 9.74781 5.25752 9.74058C5.0419 9.75245 4.85752 9.71808 4.70377 9.6387C4.55273 9.56127 4.42373 9.44689 4.32877 9.3062C4.23084 9.16144 4.16128 8.9994 4.12377 8.8287C4.08446 8.65825 4.07599 8.48214 4.09877 8.3087C4.24627 7.75183 4.61002 7.47308 5.1894 7.47308V7.47308ZM5.20502 10.8837C5.50065 10.8837 5.7594 10.9918 5.98065 11.2081C6.20252 11.4237 6.31877 11.68 6.33065 11.9756C6.31877 12.6006 6.53502 13.1462 6.97815 13.6125C7.4219 14.0668 7.95565 14.2943 8.58127 14.2943H8.63252C9.24627 14.2943 9.7744 14.0668 10.2181 13.6125C10.6725 13.1575 10.8944 12.6125 10.8831 11.975C10.8823 11.6767 10.8197 11.3819 10.6993 11.109C10.579 10.8361 10.4034 10.5911 10.1838 10.3893C9.73502 9.96245 9.21315 9.7462 8.6169 9.7412H8.5469C8.40345 9.73689 8.26233 9.70374 8.13197 9.64371C8.00162 9.58369 7.88468 9.49802 7.78815 9.39183C7.68591 9.28692 7.6054 9.16285 7.55124 9.02674C7.49707 8.89063 7.47032 8.74517 7.47252 8.5987C7.47252 8.29245 7.58377 8.02745 7.80502 7.80558C7.99315 7.61808 8.21627 7.50933 8.47377 7.48058L8.54877 7.47308L8.57752 7.4737C8.60731 7.47291 8.63712 7.47312 8.6669 7.47433C9.2544 7.46683 9.76565 7.24495 10.2025 6.80808C10.6688 6.34183 10.8963 5.79058 10.8844 5.1537C10.8844 4.9037 10.97 4.6762 11.1406 4.47183L11.1575 4.45495L11.1744 4.43745C11.1744 4.4262 11.1806 4.42058 11.1913 4.42058L11.2088 4.4037V4.38683H11.2256V4.3687C11.2369 4.3687 11.2425 4.36308 11.2425 4.35183L11.2594 4.33495H11.2938C11.2938 4.32308 11.3 4.31745 11.3106 4.31745L11.3281 4.30058V4.2837H11.3619C11.3619 4.27183 11.3681 4.2662 11.3788 4.2662L11.3963 4.24933L11.4131 4.23245H11.43C11.43 4.2212 11.4363 4.21558 11.4475 4.21558C11.4588 4.21558 11.4644 4.20933 11.4644 4.19808H11.4813L11.4981 4.1812H11.5325V4.16433H11.5494L11.5669 4.14683H11.6006V4.1312H11.635L11.6519 4.11433H11.6863L11.7031 4.09745H11.7544L11.7713 4.07995H11.8225C11.8338 4.07995 11.8394 4.07433 11.8394 4.06308H12.1975L12.2063 4.07183C12.2119 4.07745 12.22 4.07995 12.2313 4.07995H12.2656L12.2744 4.0887C12.28 4.09433 12.2881 4.09745 12.2994 4.09745H12.3338L12.3506 4.11433H12.385L12.4019 4.1312H12.4363C12.4475 4.14245 12.4588 4.14808 12.47 4.14808L12.4875 4.16558H12.5213V4.18245H12.5388L12.5556 4.19933L12.5638 4.20808C12.57 4.21433 12.5781 4.21683 12.5894 4.21683L12.6069 4.2337H12.6238C12.6238 4.24495 12.635 4.25058 12.6575 4.25058L12.675 4.26745V4.28495H12.6919C12.6919 4.2962 12.7031 4.30183 12.7263 4.30183C12.7263 4.31308 12.7319 4.3187 12.7431 4.3187V4.3362H12.76L12.7775 4.35308C12.7888 4.36433 12.8 4.36995 12.8113 4.36995L12.8281 4.38745C12.8281 4.3987 12.8344 4.40433 12.8456 4.40433V4.4212H12.8625C12.8625 4.43245 12.8656 4.4412 12.8713 4.4462L12.8794 4.45558C12.8794 4.46683 12.8856 4.47245 12.8969 4.47245L12.9138 4.48933C12.9138 4.50058 12.9163 4.50933 12.9219 4.51495L12.9306 4.5237L12.9475 4.54058L12.965 4.55745V4.59183L12.9819 4.6087V4.62495H12.9988C12.9988 4.63683 13.0019 4.64495 13.0075 4.65058L13.0156 4.65933C13.0156 4.67058 13.0219 4.6762 13.0331 4.6762V4.6937C13.0331 4.70495 13.0356 4.71308 13.0413 4.7187L13.05 4.72745L13.0669 4.74433C13.0669 4.76745 13.0731 4.7787 13.0844 4.7787V4.79558C13.0844 4.80745 13.0869 4.81558 13.0925 4.8212L13.1013 4.82995V4.8637L13.1181 4.8812V4.93245C13.1294 4.9437 13.135 4.95495 13.135 4.9662V5.01745C13.1469 5.0287 13.1525 5.03995 13.1525 5.05183V5.18745C13.1525 5.78995 13.3681 6.32433 13.8 6.79058C14.2438 7.2337 14.7725 7.4612 15.3863 7.47245C15.6925 7.4612 15.9656 7.5662 16.205 7.78808C16.4431 8.00933 16.5625 8.27933 16.5625 8.59808C16.5625 8.9162 16.4519 9.18558 16.23 9.40808C16.1276 9.51475 16.0043 9.59928 15.8679 9.65647C15.7315 9.71366 15.5848 9.74228 15.4369 9.74058C15.2905 9.74269 15.1452 9.7159 15.0092 9.66174C14.8732 9.60758 14.7492 9.52711 14.6444 9.42495C14.5368 9.32578 14.4504 9.20591 14.3902 9.07253C14.3301 8.93914 14.2975 8.79499 14.2944 8.6487C14.3063 8.0237 14.0788 7.47245 13.6131 6.99495C13.1581 6.53995 12.6069 6.3187 11.9588 6.32995C11.6641 6.33711 11.3737 6.4026 11.1044 6.52264C10.8351 6.64268 10.5923 6.81489 10.39 7.02933C10.1806 7.23267 10.015 7.47678 9.90352 7.74659C9.79205 8.0164 9.73704 8.30619 9.7419 8.59808L9.74127 8.65058C9.75377 9.23183 9.9694 9.7487 10.3888 10.2006C10.8319 10.6443 11.3606 10.8718 11.9744 10.8831C12.3831 10.8606 12.6963 11.0081 12.9119 11.3268C13.1281 11.6331 13.1963 11.9581 13.1169 12.2987C12.9575 12.8675 12.5938 13.1512 12.0256 13.1512H11.9744C11.3375 13.1737 10.8088 13.4075 10.3888 13.8506C9.95627 14.2825 9.74065 14.8112 9.74065 15.4362C9.74065 15.7431 9.63002 16.0075 9.40815 16.2293C9.30568 16.336 9.18243 16.4205 9.04602 16.4777C8.90961 16.5349 8.76293 16.5635 8.61502 16.5618H8.58127C8.2744 16.5618 8.01252 16.4512 7.7969 16.2293C7.69237 16.1257 7.60978 16.002 7.55406 15.8657C7.49833 15.7295 7.4706 15.5834 7.47252 15.4362C7.47252 14.8112 7.2569 14.2825 6.82502 13.8506C6.62271 13.6361 6.3799 13.4639 6.11064 13.3439C5.84138 13.2238 5.55099 13.1584 5.25627 13.1512C5.10145 13.1598 4.94652 13.1362 4.80128 13.0819C4.65605 13.0276 4.52367 12.9437 4.41252 12.8356C4.29906 12.7303 4.2092 12.6022 4.14887 12.4597C4.08854 12.3171 4.05911 12.1634 4.06252 12.0087C4.06252 11.7018 4.17315 11.4375 4.39502 11.2156C4.50017 11.1078 4.62629 11.0227 4.7656 10.9655C4.90491 10.9083 5.05446 10.8802 5.20502 10.8831V10.8837Z" fill="white"/>
</svg>
