<svg width="28" height="28" viewBox="0 0 28 28" fill="none" xmlns="http://www.w3.org/2000/svg">
<path d="M24.5121 18.4928L23.0977 23.0914L20.321 22.3612L24.5121 18.4928Z" fill="#E4761B" stroke="#E4761B" stroke-width="0.190386"/>
<path d="M20.321 22.3612L22.9991 18.8328L24.5121 18.4928L20.321 22.3612Z" fill="#E4761B" stroke="#E4761B" stroke-width="0.190386"/>
<path d="M22.4309 15.0256L24.5119 18.4928L22.999 18.8328L22.4309 15.0256ZM22.4309 15.0256L23.77 14.1338L24.5119 18.4928L22.4309 15.0256Z" fill="#F6851B" stroke="#F6851B" stroke-width="0.190386"/>
<path d="M20.7268 12.4058L24.5758 10.8896L24.3845 11.7202L20.7268 12.4058ZM24.2628 12.7179L20.7268 12.4058L24.3845 11.7202L24.2628 12.7179Z" fill="#763D16" stroke="#763D16" stroke-width="0.190386"/>
<path d="M24.2628 12.7179L23.7701 14.1338L20.7268 12.4058L24.2628 12.7179ZM25.0338 11.2408L24.3845 11.7202L24.5758 10.8896L25.0338 11.2408ZM24.2628 12.7179L24.3845 11.7202L24.9004 12.1327L24.2628 12.7179Z" fill="#763D16" stroke="#763D16" stroke-width="0.190386"/>
<path d="M17.3357 21.2408L18.298 21.5362L20.321 22.3612L17.3357 21.2408Z" fill="#E2761B" stroke="#E2761B" stroke-width="0.190386"/>
<path d="M23.7701 14.1338L24.2628 12.7179L24.686 13.0301L23.7701 14.1338ZM23.7701 14.1338L19.7761 12.8684L20.7268 12.4058L23.7701 14.1338Z" fill="#763D16" stroke="#763D16" stroke-width="0.190386"/>
<path d="M21.6775 8.06355L20.7268 12.4058L19.7761 12.8685L21.6775 8.06355Z" fill="#763D16" stroke="#763D16" stroke-width="0.190386"/>
<path d="M24.5758 10.8896L20.7268 12.4058L21.6775 8.06355L24.5758 10.8896Z" fill="#763D16" stroke="#763D16" stroke-width="0.190386"/>
<path d="M21.6775 8.06354L25.6946 7.61761L24.5759 10.8896L21.6775 8.06354Z" fill="#763D16" stroke="#763D16" stroke-width="0.190386"/>
<path d="M23.7701 14.1338L22.431 15.0256L19.7761 12.8685L23.7701 14.1338Z" fill="#F6851B" stroke="#F6851B" stroke-width="0.190386"/>
<path d="M25.5207 4.49052L25.6946 7.61761L21.6775 8.06355L25.5207 4.49052Z" fill="#763D16" stroke="#763D16" stroke-width="0.190386"/>
<path d="M25.5208 4.49052L17.4923 10.1037L17.3879 6.29654L25.5208 4.49052Z" fill="#E2761B" stroke="#E2761B" stroke-width="0.190386"/>
<path d="M11.4172 5.83946L17.3879 6.29654L17.4922 10.1037L11.4172 5.83946Z" fill="#F6851B" stroke="#F6851B" stroke-width="0.190386"/>
<path d="M19.7761 12.8685L17.4922 10.1037L21.6774 8.06355L19.7761 12.8685Z" fill="#763D16" stroke="#763D16" stroke-width="0.190386"/>
<path d="M19.776 12.8685L22.4309 15.0256L18.7036 15.4214L19.776 12.8685Z" fill="#E4761B" stroke="#E4761B" stroke-width="0.190386"/>
<path d="M18.7037 15.4214L17.4922 10.1037L19.7761 12.8684L18.7037 15.4214Z" fill="#E4761B" stroke="#E4761B" stroke-width="0.190386"/>
<path d="M21.6774 8.06355L17.4922 10.1037L25.5207 4.49052L21.6774 8.06355Z" fill="#763D16" stroke="#763D16" stroke-width="0.190386"/>
<path d="M11.4694 22.272L13.3649 24.1728L10.7854 21.9153L11.4694 22.272Z" fill="#C0AD9E" stroke="#C0AD9E" stroke-width="0.190386"/>
<path d="M20.321 22.3612L21.2195 19.078L22.9991 18.8328L20.321 22.3612Z" fill="#CD6116" stroke="#CD6116" stroke-width="0.190386"/>
<path d="M3.78296 13.1249L7.06391 9.80825L4.20612 12.7291L3.78296 13.1249Z" fill="#E2761B" stroke="#E2761B" stroke-width="0.190386"/>
<path d="M22.9991 18.8328L21.2195 19.078L22.431 15.0256L22.9991 18.8328ZM17.4922 10.1037L14.2982 10.0033L11.4172 5.83946L17.4922 10.1037Z" fill="#F6851B" stroke="#F6851B" stroke-width="0.190386"/>
<path d="M22.4312 15.0257L21.2196 19.078L21.1211 17.0992L22.4312 15.0257Z" fill="#E4751F" stroke="#E4751F" stroke-width="0.190386"/>
<path d="M18.7036 15.4214L22.4309 15.0257L21.1208 17.0992L18.7036 15.4214Z" fill="#CD6116" stroke="#CD6116" stroke-width="0.190386"/>
<path d="M14.2981 10.0033L17.4921 10.1037L18.7036 15.4214L14.2981 10.0033Z" fill="#F6851B" stroke="#F6851B" stroke-width="0.190386"/>
<path d="M14.2982 10.0033L5.67848 2.33333L11.4172 5.83946L14.2982 10.0033ZM11.4114 23.437L3.92207 25.6667L2.42651 20.1761L11.4114 23.437Z" fill="#E4761B" stroke="#E4761B" stroke-width="0.190386"/>
<path d="M4.896 14.4961L7.7248 12.3612L10.0957 12.8907L4.896 14.4961Z" fill="#763D16" stroke="#763D16" stroke-width="0.190386"/>
<path d="M10.0955 12.8907L7.72461 12.3612L8.99409 7.32219L10.0955 12.8907Z" fill="#763D16" stroke="#763D16" stroke-width="0.190386"/>
<path d="M4.20605 12.7291L7.72467 12.3612L4.89587 14.4961L4.20605 12.7291Z" fill="#763D16" stroke="#763D16" stroke-width="0.190386"/>
<path d="M21.1209 17.0992L19.6601 16.3913L18.7036 15.4214L21.1209 17.0992Z" fill="#CD6116" stroke="#CD6116" stroke-width="0.190386"/>
<path d="M4.20605 12.7291L3.95679 11.4638L7.72466 12.3612L4.20605 12.7291Z" fill="#763D16" stroke="#763D16" stroke-width="0.190386"/>
<path d="M19.3589 17.9855L19.6603 16.3913L21.1211 17.0992L19.3589 17.9855Z" fill="#233447" stroke="#233447" stroke-width="0.190386"/>
<path d="M21.2196 19.078L19.3589 17.9855L21.1211 17.0992L21.2196 19.078Z" fill="#F6851B" stroke="#F6851B" stroke-width="0.190386"/>
<path d="M7.72476 12.3612L3.95688 11.4638L3.64966 10.3991L7.72476 12.3612ZM8.99424 7.32219L7.72476 12.3612L3.64966 10.3991L8.99424 7.32219ZM8.99424 7.32219L14.2983 10.0033L10.0956 12.8907L8.99424 7.32219Z" fill="#763D16" stroke="#763D16" stroke-width="0.190386"/>
<path d="M10.0955 12.8907L14.2981 10.0033L16.1704 15.505L10.0955 12.8907ZM16.1704 15.505L10.3621 15.388L10.0955 12.8907L16.1704 15.505Z" fill="#E4761B" stroke="#E4761B" stroke-width="0.190386"/>
<path d="M4.896 14.4961L10.0957 12.8907L10.3623 15.388L4.896 14.4961ZM18.7038 15.4214L16.1706 15.505L14.2983 10.0033L18.7038 15.4214Z" fill="#F6851B" stroke="#F6851B" stroke-width="0.190386"/>
<path d="M19.6601 16.3913L19.3586 17.9855L18.7036 15.4214L19.6601 16.3913Z" fill="#CD6116" stroke="#CD6116" stroke-width="0.190386"/>
<path d="M5.67871 2.33333L14.2984 10.0033L8.99444 7.32218L5.67871 2.33333Z" fill="#763D16" stroke="#763D16" stroke-width="0.190386"/>
<path d="M2.42651 20.1762L9.69561 19.8863L11.4114 23.437L2.42651 20.1762Z" fill="#E4761B" stroke="#E4761B" stroke-width="0.190386"/>
<path d="M11.4114 23.437L9.69556 19.8863L13.2663 19.7191L11.4114 23.437Z" fill="#CD6116" stroke="#CD6116" stroke-width="0.190386"/>
<path d="M19.3588 17.9855L21.2195 19.078L22.2455 21.4024L19.3588 17.9855ZM10.3622 15.388L2.42651 20.1761L4.89592 14.4961L10.3622 15.388ZM9.69562 19.8863L2.42651 20.1761L10.3622 15.388L9.69562 19.8863ZM18.7037 15.4214L19.1791 17.0825L16.8836 17.2107L18.7037 15.4214ZM16.8836 17.2107L16.1706 15.505L18.7037 15.4214L16.8836 17.2107Z" fill="#F6851B" stroke="#F6851B" stroke-width="0.190386"/>
<path d="M13.3649 24.1728L11.4114 23.437L18.2051 24.5351L13.3649 24.1728Z" fill="#C0AD9E" stroke="#C0AD9E" stroke-width="0.190386"/>
<path d="M4.89593 14.4961L3.78296 13.1249L4.20612 12.7291L4.89593 14.4961Z" fill="#763D16" stroke="#763D16" stroke-width="0.190386"/>
<path d="M18.9761 23.7213L18.2051 24.5351L11.4114 23.437L18.9761 23.7213Z" fill="#D7C1B3" stroke="#D7C1B3" stroke-width="0.190386"/>
<path d="M19.3413 21.7257L11.4114 23.437L13.2663 19.7191L19.3413 21.7257Z" fill="#E4761B" stroke="#E4761B" stroke-width="0.190386"/>
<path d="M11.4114 23.437L19.3413 21.7258L18.9761 23.7213L11.4114 23.437Z" fill="#D7C1B3" stroke="#D7C1B3" stroke-width="0.190386"/>
<path d="M3.64952 10.3991L3.38867 6.11259L8.99411 7.32218L3.64952 10.3991ZM4.20601 12.7291L3.43505 11.9766L3.95675 11.4638L4.20601 12.7291Z" fill="#763D16" stroke="#763D16" stroke-width="0.190386"/>
<path d="M14.8721 16.6087L16.1705 15.505L15.985 18.2029L14.8721 16.6087Z" fill="#CD6116" stroke="#CD6116" stroke-width="0.190386"/>
<path d="M16.1704 15.505L14.8719 16.6087L12.9822 17.5507L16.1704 15.505Z" fill="#CD6116" stroke="#CD6116" stroke-width="0.190386"/>
<path d="M22.2457 21.4025L21.8921 21.1516L19.3589 17.9855L22.2457 21.4025Z" fill="#F6851B" stroke="#F6851B" stroke-width="0.190386"/>
<path d="M12.9824 17.5507L10.3623 15.388L16.1706 15.505L12.9824 17.5507Z" fill="#CD6116" stroke="#CD6116" stroke-width="0.190386"/>
<path d="M15.9851 18.2029L16.1706 15.505L16.8836 17.2107L15.9851 18.2029Z" fill="#E4751F" stroke="#E4751F" stroke-width="0.190386"/>
<path d="M3.18018 10.8227L3.64971 10.3991L3.95694 11.4638L3.18018 10.8227Z" fill="#763D16" stroke="#763D16" stroke-width="0.190386"/>
<path d="M15.9849 18.2029L12.9822 17.5507L14.8719 16.6087L15.9849 18.2029Z" fill="#233447" stroke="#233447" stroke-width="0.190386"/>
<path d="M8.99411 7.32218L3.38867 6.1126L5.67838 2.33333L8.99411 7.32218Z" fill="#763D16" stroke="#763D16" stroke-width="0.190386"/>
<path d="M18.2053 24.5351L18.5241 25.3712L13.365 24.1728L18.2053 24.5351Z" fill="#C0AD9E" stroke="#C0AD9E" stroke-width="0.190386"/>
<path d="M13.2662 19.7191L12.9822 17.5507L15.9849 18.2029L13.2662 19.7191Z" fill="#F6851B" stroke="#F6851B" stroke-width="0.190386"/>
<path d="M10.3623 15.388L12.9824 17.5507L13.2665 19.7191L10.3623 15.388Z" fill="#E4751F" stroke="#E4751F" stroke-width="0.190386"/>
<path d="M16.8835 17.2107L19.179 17.0825L21.8919 21.1516L16.8835 17.2107ZM10.3622 15.388L13.2663 19.7191L9.69556 19.8863L10.3622 15.388Z" fill="#F6851B" stroke="#F6851B" stroke-width="0.190386"/>
<path d="M16.8836 17.2107L19.7356 21.3857L15.9851 18.2029L16.8836 17.2107Z" fill="#E4751F" stroke="#E4751F" stroke-width="0.190386"/>
<path d="M15.9851 18.2029L19.7356 21.3857L19.3414 21.7257L15.9851 18.2029Z" fill="#F6851B" stroke="#F6851B" stroke-width="0.190386"/>
<path d="M19.3413 21.7257L13.2664 19.7191L15.985 18.2029L19.3413 21.7257ZM21.8919 21.1516L19.7355 21.3857L16.8835 17.2107L21.8919 21.1516Z" fill="#F6851B" stroke="#F6851B" stroke-width="0.190386"/>
<path d="M22.4601 23.1137L21.5326 24.903L18.5241 25.3712L22.4601 23.1137ZM18.5241 25.3712L18.2053 24.5351L18.9763 23.7213L18.5241 25.3712Z" fill="#C0AD9E" stroke="#C0AD9E" stroke-width="0.190386"/>
<path d="M18.9761 23.7213L19.5442 23.5039L18.5239 25.3712L18.9761 23.7213ZM18.5239 25.3712L19.5442 23.5039L22.4599 23.1137L18.5239 25.3712Z" fill="#C0AD9E" stroke="#C0AD9E" stroke-width="0.190386"/>
<path d="M21.892 21.1516L22.605 21.5697L20.437 21.8205L21.892 21.1516Z" fill="#161616" stroke="#161616" stroke-width="0.190386"/>
<path d="M20.437 21.8205L19.7356 21.3857L21.892 21.1516L20.437 21.8205ZM20.1877 22.1494L22.8253 21.8428L22.4601 23.1137L20.1877 22.1494Z" fill="#161616" stroke="#161616" stroke-width="0.190386"/>
<path d="M22.4602 23.1137L19.5444 23.5039L20.1878 22.1494L22.4602 23.1137ZM19.5444 23.5039L18.9763 23.7213L19.3415 21.7258L19.5444 23.5039ZM19.3415 21.7258L19.7357 21.3857L20.4371 21.8205L19.3415 21.7258ZM22.6051 21.5697L22.8253 21.8428L20.1878 22.1494L22.6051 21.5697Z" fill="#161616" stroke="#161616" stroke-width="0.190386"/>
<path d="M20.1876 22.1494L20.4369 21.8205L22.6049 21.5697L20.1876 22.1494ZM19.3413 21.7257L20.1876 22.1494L19.5442 23.5039L19.3413 21.7257Z" fill="#161616" stroke="#161616" stroke-width="0.190386"/>
<path d="M20.4369 21.8205L20.1876 22.1494L19.3413 21.7258L20.4369 21.8205Z" fill="#161616" stroke="#161616" stroke-width="0.190386"/>
</svg>
