<svg width="64" height="64" viewBox="0 0 64 64" fill="none" xmlns="http://www.w3.org/2000/svg">
<path d="M32 5.33331V24L37.3333 18.6666" stroke="#868686" stroke-width="1.5" stroke-linecap="round" stroke-linejoin="round"/>
<path d="M31.9998 24L26.6665 18.6667" stroke="#868686" stroke-width="1.5" stroke-linecap="round" stroke-linejoin="round"/>
<path d="M5.27979 34.6667H17.0398C18.0531 34.6667 18.9598 35.2267 19.4131 36.1334L22.5331 42.3734C23.4398 44.1867 25.2798 45.3334 27.3065 45.3334H36.7198C38.7465 45.3334 40.5864 44.1867 41.4931 42.3734L44.6131 36.1334C45.0664 35.2267 45.9998 34.6667 46.9865 34.6667H58.6131" stroke="#868686" stroke-width="1.5" stroke-linecap="round" stroke-linejoin="round"/>
<path d="M18.6668 11.013C9.22683 12.3997 5.3335 17.9463 5.3335 29.333V39.9997C5.3335 53.333 10.6668 58.6663 24.0002 58.6663H40.0002C53.3335 58.6663 58.6668 53.333 58.6668 39.9997V29.333C58.6668 17.9463 54.7735 12.3997 45.3335 11.013" stroke="#868686" stroke-width="1.5" stroke-linecap="round" stroke-linejoin="round"/>
</svg>
