<svg width="20" height="20" viewBox="0 0 20 20" fill="none" xmlns="http://www.w3.org/2000/svg">
<path d="M2.1499 11.1083C2.1499 6.78327 5.66657 3.24994 9.9999 3.24994C10.8916 3.24994 11.7582 3.37494 12.5916 3.63327C12.9249 3.73327 13.1082 4.08327 13.0082 4.41661C12.9082 4.74994 12.5582 4.93327 12.2249 4.83327C11.5166 4.61661 10.7666 4.49994 9.9999 4.49994C6.35824 4.49994 3.3999 7.45827 3.3999 11.0999C3.3999 14.7416 6.35824 17.6999 9.9999 17.6999C13.6416 17.6999 16.5999 14.7416 16.5999 11.0999C16.5999 9.78327 16.2166 8.51661 15.4916 7.43327C15.2999 7.14994 15.3749 6.75827 15.6666 6.56661C15.9499 6.37494 16.3416 6.44994 16.5332 6.74161C17.3999 8.03327 17.8582 9.54161 17.8582 11.1083C17.8499 15.4333 14.3332 18.9583 9.9999 18.9583C5.66657 18.9583 2.1499 15.4333 2.1499 11.1083Z" fill="#B2B2B2"/>
<path d="M12.967 4.84182L10.5587 2.07515C10.3337 1.81682 10.3587 1.41682 10.617 1.19182C10.8754 0.96682 11.2754 0.99182 11.5004 1.25015L13.9087 4.01682C14.1337 4.27515 14.1087 4.67515 13.8504 4.90015C13.742 5.00849 13.592 5.05849 13.442 5.05849C13.267 5.05849 13.092 4.98349 12.967 4.84182Z" fill="#B2B2B2"/>
<path d="M10.125 6.85019C9.92501 6.57519 9.98335 6.18352 10.2583 5.97519L13.0667 3.92519C13.3417 3.71685 13.7333 3.78352 13.9417 4.05852C14.15 4.33352 14.0833 4.72519 13.8083 4.93352L11 6.99185C10.8917 7.07519 10.7667 7.10852 10.6333 7.10852C10.4417 7.10852 10.25 7.01685 10.125 6.85019Z" fill="#B2B2B2"/>
</svg>
