<svg width="28" height="28" viewBox="0 0 28 28" fill="none" xmlns="http://www.w3.org/2000/svg">
<path d="M28 14C28 6.26801 21.732 0 14 0C6.26801 0 0 6.26801 0 14C0 21.732 6.26801 28 14 28C21.732 28 28 21.732 28 14Z" fill="url(#paint0_radial_303_3155)"/>
<path d="M9.25359 10.0915C11.8749 7.52503 16.1249 7.52503 18.7463 10.0915L19.0618 10.4004C19.1928 10.5287 19.1928 10.7368 19.0618 10.8651L17.9826 11.9218C17.917 11.9859 17.8108 11.9859 17.7452 11.9218L17.3111 11.4967C15.4824 9.70623 12.5175 9.70623 10.6888 11.4967L10.2238 11.9519C10.1583 12.0161 10.0521 12.0161 9.98652 11.9519L8.90732 10.8953C8.77625 10.7669 8.77625 10.5589 8.90732 10.4306L9.25359 10.0915ZM20.9782 12.2768L21.9387 13.2172C22.0697 13.3455 22.0697 13.5535 21.9387 13.6819L17.6077 17.9223C17.4767 18.0506 17.2642 18.0506 17.1331 17.9223C17.1331 17.9223 17.1331 17.9223 17.1331 17.9223L14.0593 14.9127C14.0265 14.8806 13.9734 14.8806 13.9406 14.9127C13.9406 14.9127 13.9406 14.9127 13.9406 14.9127L10.8669 17.9223C10.7358 18.0506 10.5233 18.0506 10.3922 17.9223C10.3922 17.9223 10.3922 17.9223 10.3922 17.9223L6.06119 13.6818C5.93012 13.5535 5.93012 13.3454 6.06119 13.2171L7.02168 12.2767C7.15275 12.1484 7.36525 12.1484 7.49632 12.2767L10.5702 15.2863C10.603 15.3184 10.6561 15.3184 10.6888 15.2863C10.6888 15.2863 10.6888 15.2863 10.6888 15.2863L13.7626 12.2767C13.8936 12.1484 14.1061 12.1484 14.2372 12.2767C14.2372 12.2767 14.2372 12.2767 14.2372 12.2767L17.3111 15.2863C17.3438 15.3184 17.397 15.3184 17.4297 15.2863L20.5035 12.2768C20.6346 12.1484 20.8471 12.1484 20.9782 12.2768Z" fill="white"/>
<defs>
<radialGradient id="paint0_radial_303_3155" cx="0" cy="0" r="1" gradientUnits="userSpaceOnUse" gradientTransform="translate(0 14) scale(28)">
<stop stop-color="#5D9DF6"/>
<stop offset="1" stop-color="#006FFF"/>
</radialGradient>
</defs>
</svg>
